<svg xmlns="http://www.w3.org/2000/svg" width="500" height="500" version="1.0" viewBox="0 0 375 375"><path fill="#fff" d="M-37.5-37.5h450v450h-450z"/><path d="M-37.5-37.5h450v450h-450z"/><path fill="#0097b2" d="M162.426 171.541q11.673 12.796 11.672 31.266t-11.672 31.187q-11.66 12.72-29.625 12.719c-11.023 0-20.093-3.941-27.218-11.828h-.329v9.39H76.911V104.964h28.672v64.156c7.125-6.914 16.195-10.375 27.218-10.375q17.965 0 29.625 12.797m-24.125 45.281q5.344-5.437 5.344-14.015-.002-8.577-5.594-14.078c-3.718-3.676-8.336-5.516-13.843-5.516q-8.098.001-13.688 5.516-5.578 5.5-5.578 14.078-.002 8.424 5.422 13.937 5.418 5.501 13.844 5.5c5.832 0 10.53-1.804 14.093-5.422m0 0"/><path fill="#0cc0df" d="M172.325 244.276V104.963h28.672v139.313Zm0 0"/><path fill="#5ce1e6" d="m285.551 161.182-41.14 61.219h37.906v21.875H196.3l41.14-61.235h-34.343v-21.86Zm0 0"/><path fill="#d9d9d9" d="M299.32 209.604q7.764 0 13.188 5.437 5.438 5.424 5.438 13.203 0 7.61-5.438 13.047-5.424 5.42-13.187 5.422-7.61-.001-13.047-5.422-5.424-5.437-5.422-13.047-.002-7.779 5.422-13.203 5.437-5.437 13.047-5.437m0 0"/></svg>