<svg xmlns="http://www.w3.org/2000/svg" xml:space="preserve" viewBox="0 0 200 200"><path fill="#000001" d="M97 201H1V1h200v200zm44.564-95.216c.447-.965.895-1.93 1.427-2.82 0 0-.104-.045.63-.124 4.057-2.151 5.794-5.7 6.344-9.85 0 0-.262-.252.439-.226.82-1.598 1.642-3.197 2.451-5.195 0 0 .015-.399-.308-.958-2.846.065-5.692.13-9.467.335-9.368-.046-18.735-.093-28.674-.562-3.572-.739-4.63-2.963-4.487-6.501.247-6.121.198-12.264-.026-18.387-.055-1.502-1.267-2.961-2.874-4.484H92.774c0 11.08 0 21.523-.637 32.173-2.186.334-4.371.668-7.047.847-.36-.356-.72-.711-1.256-1.743-3.755-4.603-9.158-4.977-14.093-4.02-4.32.838-8.238 1.072-12.48-1.242V57.418H42.286v73.825c5.475-1.472 11.65 3.19 15.93-3.658 6.59 5.111 14.185 7.051 21.802 3.24 4.532-2.268 8.038-6.586 12.687-9.445l.528 9.572c4.563 0 8.643 0 13.644.217 13.609.013 27.217-.017 40.825.074 2.816.018 4.654-.462 4.27-3.156 1.126.973 2.166 2.076 3.395 2.897 3.983 2.664 9.451 1.875 12.698-1.726 3.225-3.577 3.34-9.123.264-12.807-4.663-5.586-11.906-4.6-17.52 1.636h-14.53c.262-2.726.43-4.478.69-6.143 0 0-.117-.05.6-.121 1.114-1.98 2.228-3.959 3.41-5.865 0 0-.095-.033.585-.174"/><path fill="#0594AD" d="M92.023 120.842c-3.967 3.397-7.473 7.715-12.005 9.983-7.617 3.811-15.212 1.871-21.802-3.24-4.28 6.848-10.455 2.186-15.93 3.658V57.418H57.26c0 8.483 0 17.046-.024 26.456-.025 2.592-.025 4.337-.025 6.935 9.076-6.176 17.853-6.279 26.799-1.844.36.356.72.711 1.48 1.454 2.441 2.515 4.482 4.644 6.61 7.17.033 8.016-.022 15.635-.078 23.253M77.567 110.16c-.908-2.75-1.22-5.94-2.859-8.15-2.76-3.721-8.645-4.228-12.72-1.884-4.085 2.35-6.02 7.351-4.677 12.092 1.24 4.373 5.34 7.324 10.149 7.305 5.198-.02 8.36-2.754 10.107-9.363"/><path fill="#5FDEE2" d="M152.87 87.17s-.015.4-.286.763a230 230 0 0 0-2.881 4.805s.262.251-.142.305c-2.493 3.328-4.584 6.602-6.674 9.876 0 0 .104.045-.214.16-.808 1.025-1.298 1.935-1.789 2.846 0 0 .095.033-.227.165-1.482 2.022-2.644 3.913-3.805 5.804 0 0 .116.05-.221.181-1.787 2.407-3.237 4.682-5.203 7.767 7.23 0 13.335 0 19.46.397.188 2.648.356 4.9.524 7.15.944 3.392-.894 3.872-3.71 3.854-13.608-.091-27.216-.061-41.134-.487.353-1.6 1.016-2.785 1.892-4.203a8363 8363 0 0 0 19.162-27.573c-3.544 0-5.984.002-8.425 0-11.028-.014-11.032-.015-10.205-11.025.02-.276.361-.528.554-.797q2.715-.18 5.43-.351c9.369.046 18.736.093 29.007.156 3.564.08 6.225.144 8.887.207"/><path fill="#12BEDC" d="M108.247 126.784a423 423 0 0 0-2.14 3.864c-4.23.304-8.31.304-12.874.304-.175-3.178-.352-6.375-.869-9.84-.285-7.888-.23-15.507.086-23.77.281-3.218.303-5.792.324-8.365V57.012c5.076 0 9.66 0 14.758.483.58 23.419.647 46.354.715 69.29"/><path fill="#021115" d="M108.46 126.553c-.28-22.704-.348-45.64-.465-69.036.631 1.018 1.843 2.477 1.898 3.98.224 6.122.273 12.265.026 18.386-.144 3.538.915 5.762 4.772 6.713-1.524.326-3.334.44-5.145.562-.193.269-.533.52-.554.797-.827 11.01-.823 11.01 10.205 11.024 2.44.003 4.881 0 8.425 0a8215 8215 0 0 1-19.162 27.574"/><path fill="#D4D5D5" d="M151.692 127.738c-.448-2.6-.616-4.85-.733-7.682.263-.768.357-1.003.334-1.285 5.13-6.92 12.373-7.906 17.036-2.32 3.075 3.684 2.961 9.23-.264 12.807-3.247 3.601-8.715 4.39-12.698 1.726-1.229-.821-2.269-1.924-3.675-3.246"/><path fill="#021115" d="M83.922 88.627c-8.857-4.097-17.634-3.994-26.71 2.182 0-2.598 0-4.343.106-6.477 4.185 1.01 8.103.775 12.423-.063 4.935-.957 10.338-.583 14.181 4.358m67.129 29.803c.265.623.17.858-.112 1.23-6.176.182-12.281.182-19.511.182 1.966-3.085 3.416-5.36 5.158-7.81.123 1.577-.045 3.33-.307 6.055 5.075 0 9.803 0 14.772.342M92.455 89.081c.298 2.47.276 5.043-.093 7.864-2.389-1.882-4.43-4.01-6.626-6.449 2.03-.643 4.215-.977 6.72-1.415m50.798 13.799c1.723-3.235 3.814-6.51 6.183-9.97-.022 4.23-1.759 7.779-6.183 9.97m6.799-10.129c.52-1.493 1.39-2.974 2.537-4.618a19.4 19.4 0 0 1-2.537 4.618m-12.842 19.107c.802-1.855 1.964-3.746 3.412-5.805a33.3 33.3 0 0 1-3.412 5.805m15.497-24.968c-2.5.217-5.16.154-8.26.003 2.407-.152 5.253-.217 8.26-.003m-11.484 18.965c.15-.84.64-1.751 1.407-2.814-.172.813-.62 1.778-1.407 2.814"/><path fill="#02070A" d="M77.49 110.54c-1.67 6.229-4.832 8.963-10.03 8.983-4.81.02-8.91-2.932-10.149-7.305-1.343-4.74.592-9.742 4.677-12.092 4.075-2.344 9.96-1.837 12.72 1.885 1.638 2.208 1.95 5.4 2.782 8.529"/></svg>