<svg width="2960" height="717" viewBox="0 0 2960 717" fill="none" xmlns="http://www.w3.org/2000/svg">
<rect y="358.806" width="226" height="452" transform="rotate(-45 0 358.806)" fill="#01FFB2"/>
<rect width="226" height="452" transform="matrix(0.707107 0.707107 0.707107 -0.707107 0 358.612)" fill="#01FFB2"/>
<rect width="226" height="452" transform="matrix(-0.707107 -0.707107 -0.707107 0.707107 958.418 358.806)" fill="#0A4142"/>
<rect x="958.418" y="358.612" width="226" height="452" transform="rotate(135 958.418 358.612)" fill="#0A4142"/>
<path d="M1269.52 314.72H1247.99C1246.39 306.702 1243.48 299.295 1239.28 292.498C1235.16 285.625 1229.97 279.631 1223.71 274.515C1217.44 269.398 1210.34 265.427 1202.4 262.602C1194.46 259.776 1185.87 258.364 1176.63 258.364C1161.81 258.364 1148.3 262.22 1136.08 269.933C1123.94 277.645 1114.2 288.985 1106.87 303.953C1099.62 318.844 1095.99 337.095 1095.99 358.705C1095.99 380.469 1099.62 398.796 1106.87 413.687C1114.2 428.578 1123.94 439.88 1136.08 447.593C1148.3 455.229 1161.81 459.047 1176.63 459.047C1185.87 459.047 1194.46 457.635 1202.4 454.809C1210.34 451.984 1217.44 448.051 1223.71 443.011C1229.97 437.895 1235.16 431.9 1239.28 425.027C1243.48 418.155 1246.39 410.709 1247.99 402.691H1269.52C1267.62 413.458 1264.03 423.5 1258.76 432.816C1253.56 442.056 1246.92 450.151 1238.83 457.1C1230.81 464.049 1221.57 469.471 1211.11 473.365C1200.64 477.26 1189.15 479.207 1176.63 479.207C1156.93 479.207 1139.44 474.282 1124.17 464.431C1108.89 454.504 1096.9 440.529 1088.2 422.507C1079.57 404.485 1075.26 383.218 1075.26 358.705C1075.26 334.193 1079.57 312.925 1088.2 294.904C1096.9 276.882 1108.89 262.945 1124.17 253.095C1139.44 243.167 1156.93 238.204 1176.63 238.204C1189.15 238.204 1200.64 240.151 1211.11 244.045C1221.57 247.864 1230.81 253.285 1238.83 260.311C1246.92 267.26 1253.56 275.355 1258.76 284.595C1264.03 293.835 1267.62 303.876 1269.52 314.72ZM1383.98 479.665C1368.79 479.665 1355.35 475.809 1343.66 468.096C1332.06 460.384 1322.97 449.731 1316.4 436.138C1309.84 422.469 1306.55 406.7 1306.55 388.831C1306.55 370.809 1309.84 354.964 1316.4 341.295C1322.97 327.549 1332.06 316.858 1343.66 309.222C1355.35 301.509 1368.79 297.653 1383.98 297.653C1399.18 297.653 1412.58 301.509 1424.19 309.222C1435.8 316.935 1444.88 327.625 1451.45 341.295C1458.1 354.964 1461.42 370.809 1461.42 388.831C1461.42 406.7 1458.13 422.469 1451.57 436.138C1445 449.731 1435.87 460.384 1424.19 468.096C1412.58 475.809 1399.18 479.665 1383.98 479.665ZM1383.98 460.995C1396.2 460.995 1406.55 457.711 1415.03 451.144C1423.5 444.576 1429.92 435.833 1434.27 424.913C1438.7 413.993 1440.91 401.965 1440.91 388.831C1440.91 375.696 1438.7 363.631 1434.27 352.635C1429.92 341.638 1423.5 332.818 1415.03 326.175C1406.55 319.531 1396.2 316.209 1383.98 316.209C1371.84 316.209 1361.5 319.531 1352.94 326.175C1344.47 332.818 1338.01 341.638 1333.58 352.635C1329.23 363.631 1327.06 375.696 1327.06 388.831C1327.06 401.965 1329.23 413.993 1333.58 424.913C1338.01 435.833 1344.47 444.576 1352.94 451.144C1361.42 457.711 1371.77 460.995 1383.98 460.995ZM1526.56 366.036V476H1506.18V300.058H1525.99V327.664H1527.82C1531.95 318.653 1538.36 311.436 1547.07 306.015C1555.85 300.516 1566.69 297.767 1579.6 297.767C1591.44 297.767 1601.82 300.249 1610.76 305.213C1619.77 310.1 1626.75 317.316 1631.72 326.862C1636.76 336.407 1639.28 348.129 1639.28 362.027V476H1618.89V363.287C1618.89 348.855 1614.84 337.438 1606.75 329.038C1598.73 320.638 1587.96 316.438 1574.44 316.438C1565.2 316.438 1557 318.424 1549.82 322.395C1542.64 326.365 1536.95 332.093 1532.75 339.576C1528.63 346.984 1526.56 355.804 1526.56 366.036ZM1762.27 300.058V317.813H1678.31V300.058H1762.27ZM1704.54 257.905H1725.04V430.067C1725.04 437.398 1726.3 443.164 1728.82 447.364C1731.34 451.487 1734.63 454.427 1738.67 456.184C1742.72 457.864 1747.04 458.704 1751.62 458.704C1754.29 458.704 1756.58 458.551 1758.49 458.245C1760.4 457.864 1762.08 457.482 1763.53 457.1L1767.88 475.542C1765.9 476.305 1763.45 476.993 1760.55 477.604C1757.65 478.291 1754.06 478.635 1749.79 478.635C1742.3 478.635 1735.09 476.993 1728.14 473.709C1721.26 470.425 1715.61 465.538 1711.18 459.047C1706.75 452.556 1704.54 444.5 1704.54 434.878V257.905ZM1808.58 476V300.058H1828.39V327.091H1829.88C1833.39 318.233 1839.5 311.093 1848.21 305.671C1856.99 300.173 1866.92 297.424 1877.99 297.424C1879.67 297.424 1881.54 297.462 1883.6 297.538C1885.66 297.615 1887.38 297.691 1888.76 297.767V318.5C1887.84 318.347 1886.24 318.118 1883.95 317.813C1881.66 317.507 1879.17 317.355 1876.5 317.355C1867.34 317.355 1859.17 319.302 1851.99 323.196C1844.89 327.015 1839.27 332.322 1835.15 339.118C1831.03 345.915 1828.96 353.665 1828.96 362.371V476H1808.58ZM1972.69 480.009C1962.08 480.009 1952.38 477.947 1943.6 473.824C1934.81 469.624 1927.83 463.591 1922.63 455.725C1917.44 447.784 1914.85 438.162 1914.85 426.86C1914.85 418.155 1916.49 410.824 1919.77 404.867C1923.05 398.911 1927.71 394.024 1933.75 390.205C1939.78 386.387 1946.92 383.371 1955.17 381.156C1963.41 378.942 1972.5 377.224 1982.43 376.002C1992.28 374.78 2000.6 373.711 2007.4 372.795C2014.27 371.878 2019.5 370.427 2023.09 368.442C2026.68 366.456 2028.47 363.249 2028.47 358.82V354.696C2028.47 342.707 2024.89 333.276 2017.71 326.404C2010.61 319.455 2000.37 315.98 1987.01 315.98C1974.33 315.98 1963.99 318.767 1955.97 324.342C1948.03 329.916 1942.45 336.484 1939.24 344.044L1919.89 337.056C1923.86 327.435 1929.35 319.76 1936.38 314.033C1943.41 308.229 1951.27 304.067 1959.98 301.547C1968.68 298.951 1977.5 297.653 1986.44 297.653C1993.16 297.653 2000.14 298.531 2007.4 300.287C2014.73 302.044 2021.53 305.098 2027.79 309.451C2034.05 313.727 2039.13 319.722 2043.02 327.435C2046.92 335.071 2048.86 344.769 2048.86 356.529V476H2028.47V448.165H2027.21C2024.77 453.358 2021.14 458.398 2016.33 463.285C2011.52 468.173 2005.49 472.182 1998.23 475.313C1990.98 478.444 1982.47 480.009 1972.69 480.009ZM1975.44 461.338C1986.28 461.338 1995.68 458.933 2003.62 454.122C2011.56 449.311 2017.67 442.935 2021.95 434.993C2026.3 426.975 2028.47 418.155 2028.47 408.533V383.104C2026.95 384.555 2024.39 385.853 2020.8 386.998C2017.29 388.144 2013.2 389.175 2008.54 390.091C2003.96 390.931 1999.38 391.656 1994.8 392.267C1990.22 392.878 1986.09 393.413 1982.43 393.871C1972.5 395.093 1964.02 397.002 1957 399.598C1949.97 402.195 1944.59 405.784 1940.85 410.365C1937.11 414.871 1935.23 420.675 1935.23 427.776C1935.23 438.467 1939.05 446.753 1946.69 452.633C1954.33 458.436 1963.91 461.338 1975.44 461.338ZM2138.95 241.411L2195.65 419.644H2197.83L2254.64 241.411H2309.63L2228.76 476H2164.84L2083.86 241.411H2138.95ZM2367.59 479.322C2356.36 479.322 2346.36 477.375 2337.58 473.48C2328.79 469.509 2321.84 463.667 2316.73 455.955C2311.69 448.165 2309.17 438.467 2309.17 426.86C2309.17 417.085 2310.96 408.876 2314.55 402.233C2318.14 395.589 2323.03 390.244 2329.21 386.196C2335.4 382.149 2342.42 379.095 2350.29 377.033C2358.23 374.971 2366.56 373.52 2375.26 372.68C2385.49 371.611 2393.74 370.618 2400 369.702C2406.26 368.709 2410.81 367.258 2413.63 365.349C2416.46 363.44 2417.87 360.615 2417.87 356.873V356.185C2417.87 348.931 2415.58 343.318 2411 339.347C2406.49 335.376 2400.08 333.391 2391.76 333.391C2382.97 333.391 2375.99 335.338 2370.79 339.233C2365.6 343.051 2362.16 347.862 2360.48 353.665L2315.35 350C2317.64 339.309 2322.15 330.069 2328.87 322.28C2335.59 314.415 2344.26 308.382 2354.87 304.182C2365.56 299.905 2377.93 297.767 2391.98 297.767C2401.76 297.767 2411.11 298.913 2420.05 301.204C2429.06 303.495 2437.04 307.045 2443.99 311.856C2451.01 316.667 2456.55 322.853 2460.6 330.413C2464.64 337.896 2466.67 346.869 2466.67 357.331V476H2420.39V451.602H2419.02C2416.19 457.1 2412.41 461.949 2407.68 466.149C2402.94 470.273 2397.25 473.518 2390.61 475.885C2383.97 478.176 2376.29 479.322 2367.59 479.322ZM2381.56 445.645C2388.74 445.645 2395.08 444.233 2400.58 441.407C2406.07 438.505 2410.39 434.611 2413.52 429.724C2416.65 424.836 2418.22 419.3 2418.22 413.115V394.444C2416.69 395.436 2414.59 396.353 2411.92 397.193C2409.32 397.956 2406.38 398.682 2403.1 399.369C2399.81 399.98 2396.53 400.553 2393.24 401.087C2389.96 401.545 2386.98 401.965 2384.31 402.347C2378.58 403.187 2373.58 404.524 2369.3 406.356C2365.03 408.189 2361.71 410.671 2359.34 413.802C2356.97 416.856 2355.79 420.675 2355.79 425.256C2355.79 431.9 2358.19 436.978 2363 440.491C2367.89 443.927 2374.08 445.645 2381.56 445.645ZM2617.35 401.087V300.058H2666.15V476H2619.3V444.042H2617.47C2613.5 454.351 2606.89 462.636 2597.65 468.898C2588.49 475.16 2577.3 478.291 2564.09 478.291C2552.33 478.291 2541.98 475.618 2533.05 470.273C2524.11 464.927 2517.13 457.329 2512.09 447.478C2507.12 437.627 2504.6 425.829 2504.53 412.084V300.058H2553.32V403.378C2553.4 413.764 2556.19 421.973 2561.68 428.005C2567.18 434.038 2574.55 437.055 2583.79 437.055C2589.67 437.055 2595.17 435.718 2600.29 433.045C2605.4 430.296 2609.53 426.249 2612.66 420.904C2615.86 415.558 2617.43 408.953 2617.35 401.087ZM2753.98 241.411V476H2705.18V241.411H2753.98ZM2886.65 300.058V336.713H2780.69V300.058H2886.65ZM2804.75 257.905H2853.55V421.935C2853.55 426.44 2854.23 429.953 2855.61 432.473C2856.98 434.916 2858.89 436.635 2861.33 437.627C2863.85 438.62 2866.76 439.116 2870.04 439.116C2872.33 439.116 2874.62 438.925 2876.91 438.544C2879.2 438.085 2880.96 437.742 2882.18 437.513L2889.86 473.824C2887.41 474.587 2883.98 475.465 2879.55 476.458C2875.12 477.527 2869.73 478.176 2863.4 478.405C2851.64 478.864 2841.33 477.298 2832.47 473.709C2823.69 470.12 2816.85 464.545 2811.97 456.985C2807.08 449.425 2804.67 439.88 2804.75 428.349V257.905Z" fill="white"/>
</svg>
