<svg xmlns="http://www.w3.org/2000/svg" xmlns:xlink="http://www.w3.org/1999/xlink" width="500" zoomAndPan="magnify" viewBox="0 0 375 374.999991" height="500" preserveAspectRatio="xMidYMid meet" version="1.0"><defs><g/></defs><rect x="-37.5" width="450" fill="#ffffff" y="-37.499999" height="449.999989" fill-opacity="1"/><rect x="-37.5" width="450" fill="#000000" y="-37.499999" height="449.999989" fill-opacity="1"/><g fill="#0097b2" fill-opacity="1"><g transform="translate(67.191896, 244.275512)"><g><path d="M 95.234375 -72.734375 C 103.015625 -64.203125 106.90625 -53.78125 106.90625 -41.46875 C 106.90625 -29.15625 103.015625 -18.757812 95.234375 -10.28125 C 87.460938 -1.800781 77.585938 2.4375 65.609375 2.4375 C 54.585938 2.4375 45.515625 -1.503906 38.390625 -9.390625 L 38.0625 -9.390625 L 38.0625 0 L 9.71875 0 L 9.71875 -139.3125 L 38.390625 -139.3125 L 38.390625 -75.15625 C 45.515625 -82.070312 54.585938 -85.53125 65.609375 -85.53125 C 77.585938 -85.53125 87.460938 -81.265625 95.234375 -72.734375 Z M 71.109375 -27.453125 C 74.671875 -31.078125 76.453125 -35.75 76.453125 -41.46875 C 76.453125 -47.1875 74.585938 -51.878906 70.859375 -55.546875 C 67.140625 -59.222656 62.523438 -61.0625 57.015625 -61.0625 C 51.617188 -61.0625 47.054688 -59.222656 43.328125 -55.546875 C 39.609375 -51.878906 37.75 -47.1875 37.75 -41.46875 C 37.75 -35.851562 39.554688 -31.207031 43.171875 -27.53125 C 46.785156 -23.863281 51.398438 -22.03125 57.015625 -22.03125 C 62.847656 -22.03125 67.546875 -23.835938 71.109375 -27.453125 Z M 71.109375 -27.453125 "/></g></g></g><g fill="#0cc0df" fill-opacity="1"><g transform="translate(162.605952, 244.275512)"><g><path d="M 9.71875 0 L 9.71875 -139.3125 L 38.390625 -139.3125 L 38.390625 0 Z M 9.71875 0 "/></g></g></g><g fill="#5ce1e6" fill-opacity="1"><g transform="translate(195.488766, 244.275512)"><g><path d="M 90.0625 -83.09375 L 48.921875 -21.875 L 86.828125 -21.875 L 86.828125 0 L 0.8125 0 L 41.953125 -61.234375 L 7.609375 -61.234375 L 7.609375 -83.09375 Z M 90.0625 -83.09375 "/></g></g></g><g fill="#d9d9d9" fill-opacity="1"><g transform="translate(271.133289, 244.275512)"><g><path d="M 28.1875 -34.671875 C 33.363281 -34.671875 37.757812 -32.859375 41.375 -29.234375 C 45 -25.617188 46.8125 -21.21875 46.8125 -16.03125 C 46.8125 -10.957031 45 -6.609375 41.375 -2.984375 C 37.757812 0.628906 33.363281 2.4375 28.1875 2.4375 C 23.113281 2.4375 18.765625 0.628906 15.140625 -2.984375 C 11.523438 -6.609375 9.71875 -10.957031 9.71875 -16.03125 C 9.71875 -21.21875 11.523438 -25.617188 15.140625 -29.234375 C 18.765625 -32.859375 23.113281 -34.671875 28.1875 -34.671875 Z M 28.1875 -34.671875 "/></g></g></g></svg>