<svg version="1.1" id="Layer_1" xmlns="http://www.w3.org/2000/svg" xmlns:xlink="http://www.w3.org/1999/xlink" x="0px" y="0px"
	 width="100%" viewBox="0 0 200 200" enable-background="new 0 0 200 200" xml:space="preserve">
<path fill="#000001" opacity="1.000000" stroke="none" 
	d="
M97.000000,201.000000 
	C64.666672,201.000000 32.833336,201.000000 1.000004,201.000000 
	C1.000003,134.333344 1.000003,67.666679 1.000001,1.000013 
	C67.666656,1.000009 134.333313,1.000009 200.999969,1.000004 
	C200.999985,67.666649 200.999985,134.333298 201.000000,200.999969 
	C166.500000,201.000000 132.000000,201.000000 97.000000,201.000000 
M141.563858,105.784424 
	C142.011444,104.819191 142.459030,103.853958 142.991211,102.963669 
	C142.991211,102.963669 142.887222,102.919487 143.621078,102.839638 
	C147.678162,100.688744 149.414505,97.139198 149.965012,92.989143 
	C149.965012,92.989143 149.703049,92.738487 150.403671,92.764122 
	C151.224869,91.165756 152.046066,89.567390 152.855240,87.569496 
	C152.855240,87.569496 152.869568,87.170052 152.547241,86.610687 
	C149.701248,86.675919 146.855240,86.741158 143.080063,86.946129 
	C133.712357,86.899719 124.344643,86.853302 114.405785,86.384140 
	C110.833633,85.645332 109.775490,83.420578 109.918556,79.882828 
	C110.166077,73.761993 110.116806,67.619102 109.892738,61.496422 
	C109.837769,59.994301 108.626244,58.534504 107.019485,57.012428 
	C102.434792,57.012428 97.850090,57.012428 92.773689,57.012428 
	C92.773689,68.092300 92.773689,78.534706 92.136894,89.185371 
	C89.951378,89.519371 87.765854,89.853371 85.090324,90.031815 
	C84.730423,89.676331 84.370529,89.320854 83.834030,88.288506 
	C80.078972,83.685921 74.676491,83.311928 69.740631,84.269142 
	C65.420662,85.106911 61.503082,85.341499 57.261002,83.026634 
	C57.261002,74.463570 57.261002,65.900513 57.261002,57.418316 
	C51.681461,57.418316 46.978573,57.418316 42.285728,57.418316 
	C42.285728,82.080734 42.285728,106.289444 42.285728,131.243164 
	C47.760841,129.770905 53.936710,134.433105 58.215729,127.585144 
	C64.805550,132.696381 72.400612,134.636353 80.018059,130.824982 
	C84.550041,128.557404 88.055832,124.238892 92.705040,121.380272 
	C92.881470,124.577232 93.057907,127.774200 93.233299,130.952255 
	C97.796364,130.952255 101.876183,130.952255 106.877327,131.168533 
	C120.485588,131.181534 134.094147,131.151764 147.701889,131.242630 
	C150.518082,131.261414 152.356232,130.781448 151.971771,128.086716 
	C153.098083,129.060333 154.138351,130.162582 155.366531,130.983871 
	C159.350052,133.647736 164.818329,132.859299 168.065155,129.258041 
	C171.290070,125.681129 171.404449,120.134827 168.329269,116.451195 
	C163.665970,110.865219 156.422638,111.851616 150.809891,118.087135 
	C146.081833,118.087135 141.353775,118.087135 136.278641,118.087135 
	C136.540726,115.361465 136.709290,113.608574 136.968246,111.943832 
	C136.968246,111.943832 136.852341,111.893753 137.569702,111.822517 
	C138.683319,109.843323 139.796936,107.864128 140.978577,105.957954 
	C140.978577,105.957954 140.884369,105.924995 141.563858,105.784424 
z"/>
<path fill="#0594AD" opacity="1.000000" stroke="none" 
	d="
M92.022980,120.842438 
	C88.055832,124.238892 84.550041,128.557404 80.018059,130.824982 
	C72.400612,134.636353 64.805550,132.696381 58.215729,127.585144 
	C53.936710,134.433105 47.760841,129.770905 42.285728,131.243164 
	C42.285728,106.289444 42.285728,82.080734 42.285728,57.418316 
	C46.978573,57.418316 51.681461,57.418316 57.261002,57.418316 
	C57.261002,65.900513 57.261002,74.463570 57.236641,83.873665 
	C57.212280,86.465813 57.212280,88.210938 57.212280,90.808891 
	C66.287933,84.632683 75.064529,84.530365 84.010628,88.965370 
	C84.370529,89.320854 84.730423,89.676331 85.491089,90.418617 
	C87.932419,92.934219 89.972992,95.063011 92.101715,97.589127 
	C92.134232,105.605110 92.078606,113.223770 92.022980,120.842438 
M77.566826,110.160461 
	C76.658501,107.410919 76.346214,104.219337 74.708313,102.010887 
	C71.947754,98.288727 66.062744,97.782410 61.988327,100.125801 
	C57.902950,102.475517 55.968281,107.477409 57.311424,112.217506 
	C58.550594,116.590668 62.650509,119.542137 67.459656,119.523094 
	C72.657837,119.502510 75.820915,116.768517 77.566826,110.160461 
z"/>
<path fill="#5FDEE2" opacity="1.000000" stroke="none" 
	d="
M152.869568,87.170052 
	C152.869568,87.170052 152.855240,87.569496 152.584351,87.933212 
	C151.443329,89.777451 150.573181,91.257965 149.703033,92.738480 
	C149.703049,92.738487 149.965012,92.989143 149.561462,93.042831 
	C147.067688,96.370842 144.977463,99.645164 142.887222,102.919487 
	C142.887222,102.919487 142.991211,102.963669 142.673157,103.078461 
	C141.864868,104.103836 141.374619,105.014420 140.884369,105.925003 
	C140.884369,105.924995 140.978577,105.957954 140.657166,106.089569 
	C139.174606,108.112045 138.013474,110.002899 136.852341,111.893753 
	C136.852341,111.893753 136.968246,111.943832 136.630936,112.075401 
	C134.843735,114.482018 133.393845,116.757057 131.427612,119.842293 
	C138.657867,119.842293 144.763199,119.842293 150.888489,120.239197 
	C151.076126,122.887268 151.243820,125.138451 151.411530,127.389626 
	C152.356232,130.781448 150.518082,131.261414 147.701889,131.242630 
	C134.094147,131.151764 120.485588,131.181534 106.567787,130.755920 
	C106.921135,129.156921 107.584023,127.970543 108.460075,126.553497 
	C114.827148,117.442635 120.981064,108.562447 127.621872,98.979675 
	C124.078339,98.979675 121.637794,98.982262 119.197258,98.979233 
	C108.168510,98.965569 108.164764,98.964714 108.991920,87.954865 
	C109.012650,87.678940 109.353134,87.427048 109.545662,87.157654 
	C111.356873,87.036537 113.166908,86.921715 114.976936,86.806885 
	C124.344643,86.853302 133.712357,86.899719 143.983093,86.963303 
	C147.547272,87.043678 150.208420,87.106865 152.869568,87.170052 
z"/>
<path fill="#12BEDC" opacity="1.000000" stroke="none" 
	d="
M108.246918,126.784157 
	C107.584023,127.970543 106.921135,129.156921 106.107132,130.647781 
	C101.876183,130.952255 97.796364,130.952255 93.233299,130.952255 
	C93.057907,127.774200 92.881470,124.577232 92.364014,121.111359 
	C92.078606,113.223770 92.134232,105.605110 92.450012,97.341835 
	C92.731339,94.123856 92.752510,91.550484 92.773689,88.977112 
	C92.773689,78.534706 92.773689,68.092300 92.773689,57.012428 
	C97.850090,57.012428 102.434792,57.012428 107.531921,57.495361 
	C108.111870,80.913582 108.179390,103.848869 108.246918,126.784157 
z"/>
<path fill="#021115" opacity="1.000000" stroke="none" 
	d="
M108.460068,126.553497 
	C108.179390,103.848869 108.111870,80.913582 107.995392,57.516769 
	C108.626244,58.534504 109.837769,59.994301 109.892738,61.496422 
	C110.116806,67.619102 110.166077,73.761993 109.918556,79.882828 
	C109.775490,83.420578 110.833633,85.645332 114.691360,86.595520 
	C113.166908,86.921715 111.356873,87.036537 109.545662,87.157654 
	C109.353134,87.427048 109.012650,87.678940 108.991920,87.954865 
	C108.164764,98.964714 108.168510,98.965569 119.197258,98.979233 
	C121.637794,98.982262 124.078339,98.979675 127.621872,98.979675 
	C120.981064,108.562447 114.827148,117.442635 108.460068,126.553497 
z"/>
<path fill="#D4D5D5" opacity="1.000000" stroke="none" 
	d="
M151.691650,127.738174 
	C151.243820,125.138451 151.076126,122.887268 150.959381,120.056229 
	C151.221558,119.288200 151.315765,119.053146 151.292969,118.771210 
	C156.422638,111.851616 163.665970,110.865219 168.329269,116.451195 
	C171.404449,120.134827 171.290070,125.681129 168.065155,129.258041 
	C164.818329,132.859299 159.350052,133.647736 155.366531,130.983871 
	C154.138351,130.162582 153.098083,129.060333 151.691650,127.738174 
z"/>
<path fill="#021115" opacity="1.000000" stroke="none" 
	d="
M83.922333,88.626938 
	C75.064529,84.530365 66.287933,84.632683 57.212280,90.808891 
	C57.212280,88.210938 57.212280,86.465813 57.317520,84.331657 
	C61.503082,85.341499 65.420662,85.106911 69.740631,84.269142 
	C74.676491,83.311928 80.078972,83.685921 83.922333,88.626938 
z"/>
<path fill="#021115" opacity="1.000000" stroke="none" 
	d="
M151.051422,118.429169 
	C151.315765,119.053146 151.221558,119.288200 150.939438,119.659332 
	C144.763199,119.842293 138.657867,119.842293 131.427612,119.842293 
	C133.393845,116.757057 134.843735,114.482018 136.585724,112.031326 
	C136.709290,113.608574 136.540726,115.361465 136.278641,118.087135 
	C141.353775,118.087135 146.081833,118.087135 151.051422,118.429169 
z"/>
<path fill="#021115" opacity="1.000000" stroke="none" 
	d="
M92.455292,89.081238 
	C92.752510,91.550484 92.731339,94.123856 92.361862,96.944519 
	C89.972992,95.063011 87.932419,92.934219 85.736092,90.496399 
	C87.765854,89.853371 89.951378,89.519371 92.455292,89.081238 
z"/>
<path fill="#021115" opacity="1.000000" stroke="none" 
	d="
M143.254150,102.879562 
	C144.977463,99.645164 147.067688,96.370842 149.437317,92.910927 
	C149.414505,97.139198 147.678162,100.688744 143.254150,102.879562 
z"/>
<path fill="#021115" opacity="1.000000" stroke="none" 
	d="
M150.053345,92.751297 
	C150.573181,91.257965 151.443329,89.777451 152.590363,88.132980 
	C152.046066,89.567390 151.224869,91.165756 150.053345,92.751297 
z"/>
<path fill="#021115" opacity="1.000000" stroke="none" 
	d="
M137.211029,111.858139 
	C138.013474,110.002899 139.174606,108.112045 140.623154,106.053070 
	C139.796936,107.864128 138.683319,109.843323 137.211029,111.858139 
z"/>
<path fill="#021115" opacity="1.000000" stroke="none" 
	d="
M152.708405,86.890366 
	C150.208420,87.106865 147.547272,87.043678 144.447693,86.893440 
	C146.855240,86.741158 149.701248,86.675919 152.708405,86.890366 
z"/>
<path fill="#021115" opacity="1.000000" stroke="none" 
	d="
M141.224121,105.854713 
	C141.374619,105.014420 141.864868,104.103836 142.630859,103.040985 
	C142.459030,103.853958 142.011444,104.819191 141.224121,105.854713 
z"/>
<path fill="#02070A" opacity="1.000000" stroke="none" 
	d="
M77.490425,110.539764 
	C75.820915,116.768517 72.657837,119.502510 67.459656,119.523094 
	C62.650509,119.542137 58.550594,116.590668 57.311424,112.217506 
	C55.968281,107.477409 57.902950,102.475517 61.988327,100.125801 
	C66.062744,97.782410 71.947754,98.288727 74.708313,102.010887 
	C76.346214,104.219337 76.658501,107.410919 77.490425,110.539764 
z"/>
</svg>