<svg xmlns="http://www.w3.org/2000/svg" xmlns:xlink="http://www.w3.org/1999/xlink" id="Layer_1" x="0px" y="0px" viewBox="0 0 148.2 40.8" style="enable-background:new 0 0 148.2 40.8;" xml:space="preserve"><style type="text/css">	.st0{fill:#FFFFFF;}</style><path class="st0" d="M32.5,37.7V3.5c4.3,0.2,7.9,2.3,10.8,5.5c3.2,3.3,5.1,7.5,7,11.8c3-7.9,8.3-16.5,17.6-17.2v11.9 c1.3-3.7,3.2-7.2,6.4-9.6C77.6,3,81.8,1.9,86,1.9c7.6,0,15.3,5.2,16.8,13H94c-1.5-3.4-4.7-4.9-8.4-4.9c-5.9,0-10.4,4.3-10.4,10.3 c0,6.2,4.1,10.6,10.4,10.6c2.7,0,5.1-0.8,7.1-2.7c1-1,1.7-2.3,2.3-3.7H84.6v-8.2h18.9V3.5h17.7v8.3H112v4.7h9.2v8.2H112v4.9h9.2v8.3 h-17.7V24.7c-0.7,3-1.8,5.4-3.7,7.6c-3.5,4.4-8.8,6.6-14.5,6.6c-4.3,0-8.4-1.1-11.8-4c-3-2.4-4.7-5.7-5.6-9.4v12h-8.3V19.2 c-4,5.2-5.4,12.1-5.5,18.5h-7.8c-0.1-6.5-1.9-13-5.5-18.5v18.5L32.5,37.7z"></path><path class="st0" d="M138.3,3.5h8.3v34.3h-7.4c-1.1-5.6-3.9-12.9-8.4-16.5v16.5h-8.3V3.5c3.6,0.8,8.7,4.6,11.4,7.3 c1.8,1.7,3.4,3.5,4.4,5.7V3.5z"></path><path class="st0" d="M1.6,37.7l0.2-0.9l1.4-4.9c1.1-4,2.7-7.9,4.4-11.6c4.3-9.6,11.5-17,22.6-17c0.2,0,0.5,0,0.8,0v34.6h-8.3v-8.3 H12.1l-0.2,0.7l-0.5,1.5L10.7,34L10,36.8l-0.2,1H1.6V37.7z M15.9,21.3h7v-7.8C19.1,15.1,17.6,17.7,15.9,21.3z"></path></svg>