<?xml version="1.0" encoding="utf-8"?>
<!-- Generator: Adobe Illustrator 28.2.0, SVG Export Plug-In . SVG Version: 6.00 Build 0)  -->
<svg version="1.1" id="Layer_1" xmlns="http://www.w3.org/2000/svg" xmlns:xlink="http://www.w3.org/1999/xlink" x="0px" y="0px"
	 viewBox="0 0 98 40" style="enable-background:new 0 0 98 40;" xml:space="preserve">
<style type="text/css">
	.st0{fill:#FFFFFF;}
</style>
<path class="st0" d="M96.714,30.172h-5.037l0.832-3.331H82.417l-0.83,3.331H76.71v-0.684c0.076-0.376,0.14-0.769,0.235-1.19
	c0.887-3.592,3.245-7.141,7.324-7.141c1.614,0,3.218,0.615,2.998,2.848h6.004c0.236-1.042,0.634-2.816-0.499-4.447
	c-1.28-1.773-3.858-2.484-7.202-2.484c-2.378,0-5.856,0.381-8.861,2.342V1.298h20.004L96.714,30.172L96.714,30.172z M84.91,35.053
	c-1.142,0.206-2.28,0.344-3.364,0.344c-2.884,0-4.889-1.34-4.931-4.467h9.317L84.91,35.053z M73.383,18.559l-0.01,4.139
	c-1.394,1.926-2.259,4.03-2.664,5.724c-0.153,0.593-0.261,1.169-0.319,1.751h-2.938l2.512-11.921l-8.455-0.008L53.94,30.172h-0.551
	V1.298h19.994V18.559z M62.217,30.172h-3.008l4.553-7.163L62.217,30.172z M50.078,18.223h-5.004l-3.433,11.949h-5.306
	c2.704-1,4.349-2.91,4.858-5.744c0.419-2.202,0.22-3.652-0.678-4.736c-1.346-1.614-4.047-1.476-6.447-1.476
	c-0.42,0-3.969,0.007-3.969,0.007V1.298h19.979V18.223z M46.878,30.172l2.106-7.475l0.074,7.475H46.878z M32.327,27.331H32.32
	c-0.194,0.01-0.389,0.027-0.612,0.027c-0.292,0-0.52,0.011-0.735,0.011l-1.28-0.011l0.592-2.188l0.28-1.086l0.671-2.544
	c0.297,0,0.589-0.011,0.868-0.011c0.329,0,0.67,0,0.991,0c1.691,0,2.761,0.096,3.149,0.64c0.299,0.408,0.26,1.114-0.092,2.187
	C35.55,26.204,34.786,27.143,32.327,27.331z M26.77,19.283l-0.313,1.037l-2.86,9.518l-0.113,0.335H14.07l-0.735-1.55l10.148-10.371
	h-6.52L9.027,26.8l2.57-8.548H6.79V1.298h19.98V19.283z M75.951,0.531v19.43c-0.679,0.536-1.256,1.11-1.794,1.729V0.531H52.635
	v17.692h-1.783V0.531H29.326v17.72h-1.781V0.531H6.019v20.197L0.527,39.04h4.83l2.426-8.11h0.698l4.006,8.11h5.837l-3.887-8.11h8.82
	l-2.448,8.11h5.279l2.415-8.087h1.159V30.93h1.66h0.132h9.959l-2.331,8.086h5.322l2.258-8.086h2.395l0.064,8.086h4.465l5.124-8.086
	h3.355l-1.73,8.086h5.24l1.7-8.086h3.03c-0.12,2.506,0.52,4.783,2.183,6.316c2.03,1.866,5.148,2.223,7.456,2.223
	c3.157,0,6.434-0.453,9.732-1.196l1.816-7.342h5.981v-30.4H75.951z"/>
</svg>
