<svg width="3000" height="1805" viewBox="0 0 3000 1805" fill="none" xmlns="http://www.w3.org/2000/svg">
<g clip-path="url(#clip0_3155_9318)">
<g filter="url(#filter0_f_3155_9318)">
<path d="M3282.22 -648.559C3055.75 -943.472 2968.06 -1057.66 2840.98 -1191.63C2522.72 -1527.48 2144.59 -1737.7 1717.01 -1816.37C1311.37 -1891 860.77 -1863.65 377.691 -1735.09C-64.2437 -1617.59 -522.524 -1413.95 -947.65 -1146.35C-1372.78 -878.746 -1743.16 -560.776 -2018.77 -226.695C-2231.25 30.8032 -2385.7 292.112 -2480.89 553.617C-2520.48 662.33 -2550.13 771.114 -2568.98 879.616C-2588.46 972.269 -2593.25 1092.51 -2583.17 1236.94C-2565.24 1493.65 -2360.65 1711.93 -2085.34 1767.05C-1865.21 1811.09 -1468.54 1825.9 -595.919 1521.94C-193.372 1381.73 242.163 1203.45 687.38 1020.22C1136.86 835.16 1593.14 647.421 2010.07 506.082C2058.86 580.222 2085.51 635.435 2080.03 667.6C2071.38 717.631 2043.11 792.671 1988.3 884.515C1870.01 1082.54 1628.54 1358.75 1188.83 1635.53C549.998 2037.66 49.2031 2086.68 -123.852 2054.86C-177.599 2044.96 -260.753 1952.77 -371.003 1813.49C-458.014 1844.36 -544.125 1873.72 -628.92 1901.31C-437.648 2147.43 -330.091 2264.7 -173.799 2293.47C-14.9026 2322.67 206.778 2303.01 450.381 2238C739.431 2160.81 1046.97 2022.68 1342.96 1836.37C1638.94 1650.05 1889.05 1437.26 2069.58 1218.77C2200.99 1059.82 2291.61 903.021 2330.04 769.724C2336.14 748.694 2341.04 728.128 2344.47 708.309C2359.82 619.67 2333.13 535.017 2265.63 424.187C2343.2 400.867 2418.89 379.67 2492.33 361.03C2541.37 448.901 2590.16 566.217 2580.99 697.913C2579.93 713.032 2578.36 728.286 2575.76 743.809C2521.69 1056.71 2206.9 1552.89 1477.8 2011.83C748.708 2470.77 125.272 2565.16 -217.525 2502.08C-407.746 2467.08 -538.621 2348.16 -620.434 2261.74C-691.49 2186.78 -764.865 2093.91 -858.821 1971.96C-947.686 1999.75 -1116.42 2040.21 -1128.75 2043.06C-1004.73 2204.56 -914.729 2321.63 -822.236 2419.28C-714.231 2533.23 -539.265 2690.53 -267.5 2740.51C-43.823 2781.65 244.936 2763.5 545.802 2689.37C903.907 2601.12 1263.38 2444.37 1631.92 2212.39C2000.46 1980.4 2287.88 1729.96 2503.97 1456.78C2685.51 1227.25 2804.93 988.465 2840.17 784.348C2848.81 734.317 2851.5 686.051 2849.71 639.855C2844.7 509.811 2803.9 396.061 2757.6 303.442C2841.88 288.74 2921.99 278.652 2997.4 273.979C3037.09 365.094 3074.14 482.146 3082.37 616.115C3086.37 680.476 3083.77 748.71 3071.44 819.956C2980.72 1344.66 2490.77 1932.21 1766.68 2388C1042.58 2843.8 263.54 3055.03 -311.246 2949.23C-694.105 2878.77 -923.468 2636.69 -998.845 2557.18C-1099.88 2450.55 -1220.77 2293.13 -1374.13 2093.42C-1478.14 2111.28 -1576.66 2123.41 -1670.22 2129.79C-1385.16 2500.99 -1310.74 2598.58 -1200.72 2714.76C-1110.31 2810.23 -835.139 3100.56 -361.36 3187.75C283.225 3306.38 1136.22 3082.42 1920.65 2588.65C2705.09 2094.88 3233.93 1448.93 3335.59 860.561C3341.99 823.564 3346.17 787.301 3348.75 751.765C3361.61 573.634 3329.62 415.701 3285.5 287.7C3454.02 317.37 3572.06 449.758 3581.31 599.806C3587.93 707.953 3583.17 807.304 3567.08 894.988L3566.88 896.062C3560.58 932.523 3552.68 969.045 3543.68 1005.6C3470.98 1301.22 3310.82 1600.7 3065.84 1897.55C2806.92 2211.39 2457.51 2511.06 2055.36 2764.2C1653.22 3017.33 1221.25 3209.51 806.185 3320.01C365.001 3437.42 -42.5889 3463.11 -405.225 3396.45C-772.456 3328.91 -1099.53 3145.88 -1377.44 2852.64C-1495.4 2728.14 -1692.38 2480.22 -1949.91 2131.46C-1966.73 2130.33 -2130.16 2122.58 -2305.63 2066.97C-2216.08 2219.65 -1951.76 2556.21 -1951.76 2556.21C-1814.49 2734.96 -1706.07 2876.15 -1579.06 3010.16C-1260.8 3346.01 -882.665 3556.23 -455.081 3634.9C-49.4459 3709.54 401.154 3682.19 884.351 3553.64C1326.31 3436.04 1784.52 3232.44 2209.64 2964.84C2634.77 2697.24 3005.15 2379.27 3280.76 2045.19C3493.24 1787.69 3647.7 1526.38 3742.88 1264.87C3782.7 1155.64 3812.38 1046.37 3831.21 937.308C3850.39 832.187 3856.23 715.06 3848.51 589.27C3832.63 329.854 3628 108.576 3350.75 52.1247C3076.44 -3.71931 2656.36 19.2517 1857.84 296.589C1455.12 436.447 1019.76 615.08 574.543 798.313C125.067 983.375 -331.211 1171.11 -748.143 1312.45C-796.941 1238.31 -823.582 1183.1 -818.105 1150.93C-809.458 1100.9 -781.188 1025.86 -726.375 934.019C-608.084 735.999 -365.784 459.258 73.1592 182.959C715.674 -221.481 1212.72 -268.15 1385.78 -236.329C1439.52 -226.423 1522.68 -134.234 1632.93 5.04245C1719.94 -25.8281 1806.05 -55.1874 1890.84 -82.774C1699.57 -328.9 1592.02 -446.161 1435.72 -474.931C1276.83 -504.14 1055.15 -484.477 811.543 -419.463C522.493 -342.278 213.841 -203.444 -81.0332 -17.8315C-375.907 167.781 -627.126 381.271 -807.659 599.766C-939.064 758.714 -1029.69 915.513 -1068.11 1048.81C-1074.21 1069.84 -1079.12 1090.41 -1082.54 1110.23C-1097.9 1198.86 -1071.2 1283.52 -1003.76 1394.28C-1081.32 1417.6 -1157.02 1438.8 -1230.5 1457.38C-1279.54 1369.51 -1328.33 1252.19 -1319.16 1120.49C-1318.1 1105.37 -1316.53 1090.12 -1313.93 1074.6C-1259.86 761.7 -942.991 264.204 -215.978 -193.424C511.035 -651.052 1136.55 -746.755 1479.35 -683.672C1669.57 -648.675 1800.45 -529.75 1882.26 -443.33C1953.32 -368.369 2026.69 -275.503 2120.65 -153.555C2205.23 -180.346 2378.24 -221.805 2390.58 -224.655C2266.56 -386.154 2176.56 -503.222 2084.06 -600.868C1976.06 -714.824 1801.09 -872.12 1529.33 -922.103C1305.65 -963.247 1016.89 -945.098 716.024 -870.962C357.919 -782.711 -7.52421 -622.204 -370.024 -394.024C-732.523 -165.843 -1025.98 88.404 -1242.07 361.588C-1423.61 591.11 -1543.04 829.899 -1578.27 1034.02C-1586.92 1084.05 -1589.61 1132.31 -1587.81 1178.51C-1582.8 1308.55 -1542.01 1422.3 -1495.7 1514.92C-1579.92 1529.58 -1660.1 1539.71 -1735.45 1544.45C-1775.14 1453.33 -1812.2 1336.28 -1820.42 1202.31C-1824.43 1137.95 -1821.83 1069.72 -1809.49 998.471C-1718.78 473.768 -1231.05 -112.385 -504.732 -569.576C221.586 -1026.77 998.405 -1236.6 1573.19 -1130.8C1956.05 -1060.35 2185.41 -818.266 2260.79 -738.752C2361.83 -632.125 2453.18 -513.166 2636.08 -274.994C2740.09 -292.852 2838.6 -304.986 2932.17 -311.36C2632.63 -701.415 2572.68 -780.154 2462.66 -896.334C2372.25 -991.799 2097.08 -1282.13 1623.3 -1369.32C978.719 -1487.96 125.654 -1263.95 -658.709 -770.219C-1443.07 -276.491 -1971.98 369.498 -2073.64 957.866C-2080.04 994.863 -2084.23 1031.13 -2086.81 1066.66C-2099.66 1244.79 -2067.63 1402.79 -2023.56 1530.73C-2188.48 1500.78 -2305.85 1372.22 -2316.02 1224.45C-2330.73 1010.96 -2305.85 913.12 -2281.67 812.781C-2210.44 516.857 -2048.81 217.685 -1803.9 -79.1225C-1544.98 -392.964 -1195.56 -692.637 -793.347 -945.816C-391.133 -1199 40.7603 -1391.13 455.759 -1501.59C896.943 -1618.99 1304.53 -1644.68 1667.1 -1577.98C2034.33 -1510.44 2361.4 -1327.41 2639.32 -1034.17C2757.28 -909.67 2813.01 -839.236 3213.6 -312.899C3229.88 -311.813 3406.8 -300.845 3567.91 -248.371C3488.09 -381.677 3392.19 -505.616 3282.36 -648.646L3282.22 -648.559Z" fill="#0D5E68"/>
</g>
</g>
<defs>
<filter id="filter0_f_3155_9318" x="-3213.3" y="-2482.37" width="7690.12" height="6783.27" filterUnits="userSpaceOnUse" color-interpolation-filters="sRGB">
<feFlood flood-opacity="0" result="BackgroundImageFix"/>
<feBlend mode="normal" in="SourceGraphic" in2="BackgroundImageFix" result="shape"/>
<feGaussianBlur stdDeviation="312.5" result="effect1_foregroundBlur_3155_9318"/>
</filter>
<clipPath id="clip0_3155_9318">
<rect width="8345.83" height="4583.33" fill="white" transform="translate(-3541.67 -2779.12)"/>
</clipPath>
</defs>
</svg>
