<svg xmlns="http://www.w3.org/2000/svg" width="1344" height="803" viewBox="0 0 1344 803" fill="none"><g filter="url(#filter0_f_4158_19457)"><path d="M1614.4 527.489C1553.12 447.692 1529.39 416.796 1495.01 380.547C1408.89 289.673 1306.58 232.792 1190.88 211.505C1081.13 191.31 959.205 198.711 828.495 233.498C708.917 265.29 584.916 320.391 469.886 392.798C354.856 465.205 254.639 551.241 180.063 641.636C122.571 711.31 80.7789 782.014 55.0239 852.772C44.3109 882.187 36.288 911.622 31.1883 940.98C25.9167 966.05 24.6221 998.585 27.3487 1037.66C32.1999 1107.12 87.5594 1166.19 162.05 1181.1C221.613 1193.02 328.944 1197.03 565.057 1114.78C673.977 1076.84 791.824 1028.6 912.29 979.025C1033.91 928.951 1157.37 878.153 1270.18 839.91C1283.38 859.971 1290.59 874.91 1289.11 883.613C1286.77 897.151 1279.12 917.455 1264.29 942.306C1232.28 995.886 1166.95 1070.62 1047.97 1145.51C875.117 1254.32 739.613 1267.59 692.788 1258.98C678.245 1256.3 655.745 1231.35 625.914 1193.67C602.371 1202.02 579.071 1209.96 556.127 1217.43C607.881 1284.02 636.984 1315.75 679.273 1323.54C722.267 1331.44 782.249 1326.12 848.163 1308.53C926.374 1287.64 1009.59 1250.27 1089.67 1199.86C1169.76 1149.44 1237.44 1091.87 1286.28 1032.75C1321.84 989.74 1346.36 947.313 1356.76 911.246C1358.41 905.555 1359.74 899.991 1360.66 894.628C1364.82 870.644 1357.59 847.739 1339.33 817.751C1360.32 811.441 1380.8 805.706 1400.67 800.662C1413.94 824.438 1427.14 856.181 1424.66 891.815C1424.37 895.906 1423.95 900.034 1423.24 904.234C1408.61 988.897 1323.44 1123.15 1126.16 1247.33C928.884 1371.51 760.195 1397.05 667.442 1379.98C615.972 1370.51 580.56 1338.34 558.423 1314.95C539.197 1294.67 519.343 1269.54 493.921 1236.55C469.876 1244.06 424.221 1255.01 420.884 1255.78C454.44 1299.48 478.793 1331.16 503.82 1357.58C533.044 1388.41 580.386 1430.97 653.92 1444.5C714.442 1455.63 792.574 1450.72 873.982 1430.66C970.877 1406.78 1068.14 1364.37 1167.86 1301.6C1267.58 1238.83 1345.35 1171.07 1403.82 1097.15C1452.94 1035.04 1485.25 970.432 1494.79 915.203C1497.13 901.665 1497.86 888.606 1497.37 876.106C1496.01 840.919 1484.98 810.141 1472.45 785.08C1495.25 781.102 1516.93 778.372 1537.33 777.108C1548.07 801.762 1558.1 833.433 1560.32 869.682C1561.41 887.097 1560.7 905.56 1557.36 924.838C1532.82 1066.81 1400.25 1225.79 1204.32 1349.12C1008.4 1472.45 797.608 1529.6 642.083 1500.97C538.49 1481.91 476.429 1416.41 456.033 1394.89C428.695 1366.04 395.985 1323.45 354.488 1269.41C326.346 1274.24 299.69 1277.53 274.373 1279.25C351.504 1379.69 371.642 1406.1 401.412 1437.53C425.874 1463.36 500.329 1541.92 628.523 1565.51C802.934 1597.61 1033.74 1537.01 1245.99 1403.41C1458.24 1269.8 1601.33 1095.02 1628.84 935.824C1630.57 925.814 1631.7 916.002 1632.4 906.387C1635.88 858.188 1627.22 815.455 1615.29 780.82C1660.88 788.849 1692.82 824.67 1695.32 865.27C1697.12 894.532 1695.83 921.414 1691.48 945.139L1691.42 945.43C1689.72 955.296 1687.58 965.178 1685.14 975.07C1665.47 1055.06 1622.14 1136.09 1555.85 1216.41C1485.79 1301.33 1391.25 1382.42 1282.44 1450.91C1173.62 1519.4 1056.74 1571.4 944.436 1601.3C825.061 1633.07 714.776 1640.02 616.654 1621.98C517.29 1603.71 428.79 1554.18 353.593 1474.84C321.675 1441.15 268.378 1374.07 198.697 1279.7C194.144 1279.4 149.924 1277.3 102.446 1262.25C126.676 1303.57 198.195 1394.63 198.195 1394.63C235.338 1443 264.673 1481.2 299.04 1517.46C385.155 1608.33 487.469 1665.21 603.164 1686.5C712.921 1706.7 834.843 1699.3 965.586 1664.51C1085.17 1632.69 1209.15 1577.6 1324.18 1505.2C1439.21 1432.79 1539.43 1346.75 1614 1256.36C1671.5 1186.68 1713.29 1115.98 1739.04 1045.22C1749.82 1015.67 1757.85 986.099 1762.94 956.59C1768.13 928.147 1769.71 896.455 1767.63 862.419C1763.33 792.227 1707.96 732.353 1632.94 717.079C1558.72 701.969 1445.05 708.184 1228.99 783.226C1120.02 821.068 1002.22 869.403 881.759 918.981C760.14 969.055 636.681 1019.85 523.868 1058.1C510.664 1038.04 503.456 1023.1 504.938 1014.39C507.278 1000.86 514.927 980.551 529.758 955.701C561.765 902.121 627.326 827.24 746.095 752.48C919.946 643.047 1054.44 630.419 1101.26 639.03C1115.8 641.71 1138.3 666.654 1168.13 704.339C1191.68 695.986 1214.98 688.042 1237.92 680.578C1186.17 613.982 1157.06 582.253 1114.78 574.469C1071.78 566.565 1011.8 571.886 945.886 589.477C867.675 610.362 784.16 647.927 704.374 698.15C624.587 748.373 556.613 806.139 507.764 865.259C472.209 908.267 447.689 950.693 437.291 986.761C435.641 992.451 434.313 998.016 433.387 1003.38C429.232 1027.36 436.455 1050.27 454.705 1080.24C433.717 1086.55 413.235 1092.28 393.352 1097.31C380.082 1073.53 366.881 1041.79 369.363 1006.16C369.649 1002.07 370.074 997.938 370.778 993.738C385.408 909.075 471.146 774.463 667.86 650.639C864.575 526.814 1033.83 500.919 1126.58 517.988C1178.05 527.457 1213.46 559.636 1235.6 583.02C1254.83 603.302 1274.68 628.43 1300.1 661.426C1322.99 654.177 1369.8 642.959 1373.14 642.188C1339.58 598.49 1315.23 566.814 1290.2 540.393C1260.98 509.559 1213.64 466.998 1140.1 453.474C1079.58 442.341 1001.45 447.252 920.04 467.312C823.145 491.19 724.264 534.62 626.179 596.361C528.094 658.101 448.691 726.895 390.222 800.813C341.101 862.917 308.786 927.528 299.253 982.758C296.913 996.295 296.185 1009.35 296.672 1021.85C298.027 1057.04 309.066 1087.82 321.594 1112.88C298.807 1116.85 277.113 1119.59 256.723 1120.87C245.984 1096.22 235.958 1064.54 233.732 1028.29C232.649 1010.88 233.352 992.418 236.69 973.14C261.234 831.167 393.204 672.566 589.73 548.86C786.256 425.154 996.446 368.377 1151.97 397.004C1255.56 416.068 1317.63 481.57 1338.02 503.085C1365.36 531.936 1390.08 564.123 1439.57 628.568C1467.71 623.736 1494.36 620.452 1519.68 618.728C1438.63 513.187 1422.41 491.882 1392.64 460.446C1368.18 434.615 1293.73 356.058 1165.53 332.466C991.12 300.366 760.299 360.978 548.067 494.57C335.835 628.162 192.723 802.953 165.216 962.153C163.484 972.164 162.352 981.976 161.655 991.591C158.176 1039.79 166.844 1082.54 178.769 1117.16C134.144 1109.05 102.387 1074.27 99.6349 1034.29C95.655 976.519 102.385 950.046 108.93 922.896C128.202 842.826 171.936 761.876 238.204 681.566C308.262 596.647 402.806 515.562 511.637 447.058C620.467 378.553 737.328 326.566 849.618 296.678C968.993 264.911 1079.28 257.96 1177.38 276.007C1276.75 294.282 1365.25 343.807 1440.44 423.15C1472.36 456.838 1487.44 475.896 1595.83 618.311C1600.24 618.605 1648.11 621.573 1691.7 635.771C1670.1 599.701 1644.15 566.166 1614.44 527.465L1614.4 527.489Z" fill="#0D5E68"></path></g><defs><filter id="filter0_f_4158_19457" x="-174.04" y="0.414062" width="2142.56" height="1897.18" filterUnits="userSpaceOnUse" color-interpolation-filters="sRGB"><feGaussianBlur stdDeviation="100"></feGaussianBlur></filter></defs></svg>